Coordinates
version=1
nRows=14
nColumns=36
inDegrees=yes

Units are S.I. units (second, meters, Newtons, ...)
If the header above contains a line with 'inDegrees', this indicates whether rotational values are in degrees (yes) or radians (no).

endheader
time	pelvis_tilt	pelvis_list	pelvis_rotation	pelvis_tx	pelvis_ty	pelvis_tz	hip_flexion_r	hip_adduction_r	hip_rotation_r	knee_angle_r	knee_angle_r_beta	ankle_angle_r	subtalar_angle_r	mtp_angle_r	hip_flexion_l	hip_adduction_l	hip_rotation_l	knee_angle_l	knee_angle_l_beta	ankle_angle_l	subtalar_angle_l	mtp_angle_l	lumbar_extension	lumbar_bending	lumbar_rotation	arm_flex_r	arm_add_r	arm_rot_r	elbow_flex_r	pro_sup_r	arm_flex_l	arm_add_l	arm_rot_l	elbow_flex_l	pro_sup_l
      0.00000000	     11.43099742	      0.11357026	      1.94553259	      0.32522997	      1.04105549	      0.73785256	    -23.28153829	      0.27912250	      3.16052067	     24.50423773	      0.42767963	      0.16808124	     -8.27520799	     -6.76018462	      9.14790427	     -0.32091329	      1.54870647	     13.75991573	      0.24015583	     -0.70306985	     -5.53888006	     -6.76018462	    -26.26777843	     -1.99712532	      6.63631269	      7.44117296	    -18.07274816	      1.95662164	     42.04463190	     94.10374616	      4.44175857	    -10.93591397	      8.46700546	     19.28152975	     86.85751127
      0.01666670	     11.58403592	      0.26944573	      0.45165639	      0.33115923	      1.04113247	      0.73731255	    -21.11036769	     -0.87024939	      4.00606555	     29.97241417	      0.52311731	     -2.60865965	     -6.89583825	     -7.01600283	      8.20441173	      0.13913814	      2.95046100	     16.19583867	      0.28267071	      0.11039259	     -6.44011296	     -7.01600283	    -26.04277801	     -3.09372790	      7.63309684	      7.24557377	    -18.28683835	      2.55777708	     41.33880573	    102.19408712	      4.23844249	    -11.25262954	     12.38029324	     19.31638018	     96.15851883
      0.03333330	     12.27140534	      0.37445159	     -0.65034633	      0.33338627	      1.04538862	      0.73711565	    -18.85729838	     -1.65409262	      4.22405666	     36.10358316	      0.63012640	     -6.51626173	     -7.80027745	     -7.05721553	      6.43239158	      0.56665979	      3.28923463	     16.99593370	      0.29663500	      0.80462087	     -6.47750376	     -7.05721553	    -26.41217603	     -3.67723493	      7.34599035	      8.09722807	    -18.36152202	      4.99930014	     39.78006064	    103.61614175	      4.39742457	    -11.91664664	     15.10663184	     19.34304953	     98.23535433
      0.05000000	     12.86316422	      0.40440621	     -1.34266159	      0.33414625	      1.04765582	      0.73662651	    -16.45830327	     -2.26443302	      3.90426760	     42.07139444	      0.73428435	    -10.49296720	     -8.35514087	     -7.06574053	      4.68010903	      0.84128268	      3.44494749	     17.18262367	      0.29989336	      1.77935255	     -6.88910748	     -7.06574053	    -26.94323648	     -4.10375253	      7.17214982	      7.92635775	    -18.23781628	      4.92287788	     39.54815058	    103.63415059	      4.71167702	    -12.43140419	     15.23849890	     19.70035382	     98.41143629
      0.06666670	     12.99268503	      0.03501206	     -1.89452082	      0.33384042	      1.04895881	      0.73471458	    -13.82079560	     -2.24627170	      3.82086496	     46.96987136	      0.81977890	    -14.27755658	     -8.66676063	     -7.08327509	      3.40284778	      0.69892722	      3.29690911	     17.11284775	      0.29867554	      2.95230684	     -6.89847972	     -7.08327509	    -26.91596952	     -3.96777584	      7.39530719	      7.37231155	    -18.21271748	      4.32307815	     39.05338048	    103.85661296	      5.27808279	    -12.79276345	     15.54086666	     20.50194659	     99.10205829
      0.08333330	     12.93271829	     -0.17494671	     -2.46372673	      0.33210285	      1.04852289	      0.73250473	    -11.21006583	     -2.34953930	      3.79171176	     51.16401916	      0.89298059	    -16.55727779	     -8.44145829	     -7.09484732	      2.30973590	      0.74682924	      3.08614795	     16.98019268	      0.29636027	      3.60046425	     -7.27539354	     -7.09484732	    -26.74783833	     -4.00283606	      7.55973200	      6.70489601	    -18.14956924	      3.92876269	     38.74939760	    103.75424354	      5.91155064	    -13.04546750	     15.69404176	     21.18695686	     99.36134548
      0.10000000	     12.50160105	     -0.36461905	     -2.86811166	      0.32862004	      1.04626711	      0.73020765	     -8.34246564	     -2.33578387	      3.70625884	     54.76630868	      0.95585241	    -17.57411760	     -8.10218400	     -7.11229018	      1.65744890	      0.80468221	      2.88538747	     16.91958817	      0.29530252	      4.23920129	     -7.74950478	     -7.11229018	    -26.21418940	     -3.94620323	      7.74357152	      5.82835543	    -18.06175281	      3.45827547	     38.32518344	    103.35157851	      6.77061073	    -13.29674122	     16.15281624	     22.08511841	     99.58566183
      0.11666670	     12.25002784	     -0.55246632	     -3.12129716	      0.32304126	      1.04475930	      0.72739288	     -5.69218263	     -2.21637484	      3.55664817	     57.63413363	      1.00590539	    -17.56671380	     -8.02459569	     -7.11967852	      0.66083701	      0.84907778	      2.75550999	     16.52881250	      0.28848220	      4.75620015	     -7.99669210	     -7.11967852	    -26.02513029	     -3.81971769	      7.53167455	      5.29428724	    -18.01956875	      3.41241705	     37.98032173	    103.06489078	      7.79994860	    -13.51836837	     16.35514555	     22.83957048	     99.54810882
      0.13333330	     11.34808778	     -0.87199046	     -3.23894395	      0.31643560	      1.04395251	      0.72365262	     -2.16874374	     -1.81287253	      3.33918262	     59.55509837	      1.03943255	    -16.40171272	     -7.97480851	     -7.13870770	      0.13716284	      0.66042758	      2.61805963	     15.76958780	      0.27523123	      5.12912438	     -7.99388196	     -7.13870770	    -25.07594903	     -3.47885700	      7.58326081	      4.57317891	    -18.09265319	      3.36251323	     37.35211108	    102.24819310	      8.85344225	    -13.75501991	     17.07276418	     24.10316003	     99.30657471
      0.15000000	     10.66112713	     -1.13371238	     -3.11387674	      0.30939050	      1.04396256	      0.71948537	      1.31950422	     -1.43231282	      2.97397639	     60.54784796	      1.05675930	    -14.30543441	     -8.70167909	     -7.18182942	     -0.71333269	      0.47311664	      2.57024997	     14.93334524	      0.26063604	      5.56393088	     -7.80203711	     -7.18182942	    -24.44198995	     -3.10055240	      7.55772757	      4.12123255	    -18.22750299	      3.21091461	     36.55074163	    101.63350075	     10.74591269	    -14.09020967	     19.65681063	     24.45042207	    100.71077398
      0.16666670	     10.13977474	     -1.29336560	     -2.82815498	      0.30435926	      1.04369056	      0.71614638	      4.71372057	     -1.15268749	      2.60014800	     60.52966776	      1.05644200	    -11.40477508	    -10.30535767	     -7.18914298	     -1.84257046	      0.32341653	      2.50568446	     14.10469873	      0.24617343	      5.90525205	     -7.64874509	     -7.18914298	    -24.16644155	     -2.71662850	      6.93569754	      3.71190474	    -18.42493413	      3.13820910	     36.76456859	    100.86949095	     11.91613322	    -14.31731874	     19.50741889	     25.64403538	     99.98657766
      0.18333330	      9.85784179	     -1.18515202	     -2.57183410	      0.30237694	      1.04237433	      0.71460240	      7.82475031	     -1.22458196	      2.36244065	     59.68284884	      1.04166222	     -7.73740388	    -11.93071423	     -7.21165434	     -3.29001506	      0.40671544	      2.28208891	     13.32038097	      0.23248451	      6.15849646	     -7.53162370	     -7.21165434	    -24.10628865	     -2.71810391	      6.56450474	      3.38465743	    -18.29488821	      2.37468195	     35.87485287	     98.67608058	     13.29722788	    -14.57851528	     19.74010159	     26.86993034	     98.49070187
      0.20000000	      9.67417050	     -1.10394527	     -2.15816585	      0.30269698	      1.04033264	      0.71398357	     10.46795466	     -1.31301983	      2.02072087	     57.89582777	      1.01047282	     -4.36345273	    -13.60635208	     -7.21872093	     -4.79403107	      0.43403537	      2.29043232	     12.67858027	      0.22128297	      6.35324998	     -7.69536469	     -7.21872093	    -24.19950351	     -2.61386952	      6.06647058	      2.69649943	    -18.42233742	      1.89982665	     35.80102901	     98.21034500	     14.45365490	    -14.85205078	     19.66254177	     28.11239839	     98.23362379
      0.21666670	      9.62656544	     -1.09703684	     -1.77976486	      0.30347380	      1.03844654	      0.71359198	     12.49693100	     -1.32508990	      1.66906515	     55.35727363	      0.96616669	     -1.66251742	    -14.85140056	     -7.23561054	     -6.38647299	      0.38076398	      2.34196179	     12.08768112	      0.21096983	      6.61529712	     -7.98486688	     -7.23561054	    -24.55504262	     -2.41455730	      5.68023901	      1.51471941	    -18.28852815	     -0.34254521	     36.53127899	     97.11720871	     15.07997707	    -15.38263168	     19.65019350	     30.32267540	     97.86005637
